<?xml version="1.0" standalone="no"?>
<!DOCTYPE svg PUBLIC "-//W3C//DTD SVG 1.1//EN" "http://www.w3.org/Graphics/SVG/1.1/DTD/svg11.dtd" >
<svg xmlns="http://www.w3.org/2000/svg">
<metadata></metadata>
<defs>
<font id="monakoregular" horiz-adv-x="1134" >
<font-face units-per-em="2048" ascent="1638" descent="-410" />
<missing-glyph horiz-adv-x="409" />
<glyph horiz-adv-x="0" />
<glyph horiz-adv-x="682" />
<glyph horiz-adv-x="452" d="M-43 1333q0 -104 80 -174q76 -68 188 -67q104 0 183 63q88 69 88 178h-64q-10 -88 -74 -133q-57 -41 -133 -41q-78 0 -135 49q-61 45 -74 125h-59z" />
<glyph horiz-adv-x="1583" d="M63 993q-111 -283 5 -565q104 -260 356 -385q59 -31 140 -44t155 -16t125 0l51 3l16 6q20 6 45 15t48 18l110 -273l72 29l-109 268q250 133 344 395q96 269 -10 529q-115 283 -393 405q-276 119 -559 6q-281 -113 -396 -391zM143 963q94 248 344 350q250 100 494 -10.5 t346 -364.5q94 -229 14 -465q-78 -236 -292 -352l-125 309l-72 -29l125 -309l-88 -29q-111 -37 -220.5 -18.5t-215.5 76.5q-215 115 -306 342q-102 252 -4 500zM340 920q0 -33 22.5 -55.5t55.5 -22.5t55 22q20 27 21 56q0 33 -22.5 55t-53.5 22q-35 0 -56 -22 q-23 -20 -22 -55zM987 920q0 -33 22.5 -55.5t53.5 -22.5q29 0 55 22q23 27 23 56q0 33 -22.5 55t-55.5 22q-35 0 -55.5 -22.5t-20.5 -54.5z" />
<glyph horiz-adv-x="452" d="M31 1278q0 -78 57 -135q55 -55 139 -56q90 0 144 66q51 64 51 150q0 72 -57 127q-57 53 -138 53q-86 0 -141 -64q-55 -66 -55 -141zM90 1278q0 70 47 113q41 35 90 34q55 0 101 -41q41 -37 41 -90q6 -66 -39 -108q-47 -41 -103 -41q-61 0 -100 39q-37 37 -37 94z" />
<glyph unicode="&#xa;" horiz-adv-x="1583" d="M-35 711q0 -297 213 -521q195 -203 477 -225q68 -6 147 13.5t148.5 44t115.5 45.5l46 22l12 10q16 14 37 32t37 34l205 -213l55 55l-201 207q180 215 173 498q-12 280 -209 483q-213 223 -516 229q-301 8 -523 -202q-217 -211 -217 -512zM49 713q-6 268 189 452 q193 188 462 176q269 -11 457 -206q174 -182 189 -426q12 -248 -142 -437l-233 240l-56 -53l232 -242l-70 -59q-88 -74 -196.5 -97.5t-229.5 -11.5q-236 25 -409 201q-188 195 -193 463zM319 920q0 -33 22.5 -55.5t55.5 -22.5t56 22q20 27 20 56q0 33 -22.5 55t-53.5 22 q-35 0 -55 -22q-23 -20 -23 -55zM967 920q0 -33 22 -55.5t53 -22.5q29 0 56 22q23 27 22 56q0 33 -22.5 55t-55.5 22q-35 0 -55 -22.5t-20 -54.5z" />
<glyph horiz-adv-x="1583" d="M12 430q111 -281 394 -403q256 -115 524 -31q63 20 130.5 67.5t123 96.5t90.5 86l35 37l8 16q10 18 20.5 42t20.5 46l270 -121l31 72l-264 117q90 270 -27 524q-117 256 -373 373q-283 123 -565 18q-285 -104 -407 -385q-123 -276 -11 -555zM88 463q-104 246 6 491 q109 248 363 336q251 89 501 -22q225 -100 334 -324q106 -227 33 -457l-305 136l-33 -72l305 -135l-43 -82q-53 -102 -144 -165t-208 -95q-229 -68 -457 32q-248 111 -352 357zM279 1001q0 -33 22 -55t55 -22t56 22q20 27 20 55q0 33 -22.5 55.5t-53.5 22.5q-35 0 -55 -22 q-23 -20 -22 -56zM926 1001q0 -33 22 -55t53 -22q29 0 56 22q23 27 22 55q0 33 -22.5 55.5t-55.5 22.5q-35 0 -55 -22.5t-20 -55.5z" />
<glyph horiz-adv-x="452" d="M-43 1333q0 -104 80 -174q76 -68 188 -67q104 0 183 63q88 69 88 178h-64q-10 -88 -74 -133q-57 -41 -133 -41t-137 49q-59 47 -72 125h-59z" />
<glyph unicode="&#xd;" horiz-adv-x="450" d="M186 0h78v965h-78v-965z" />
<glyph horiz-adv-x="339" d="M-340 -25h76l944 1473h-80z" />
<glyph horiz-adv-x="1583" d="M66 711q0 -276 188 -494q43 -49 113.5 -91t138 -72.5t116.5 -47.5l48 -16h16q23 -2 49.5 -3t48.5 -1v-295h78v289q279 27 467 239q189 211 189 492q0 305 -213 524q-213 215 -519 215q-303 0 -512 -217q-209 -215 -208 -522zM154 711q0 272 184 467q182 195 450 194 q266 0 455 -194q184 -197 184 -467h-2q0 -252 -159 -439q-160 -188 -406 -215v334h-78v-334l-92 6q-115 8 -209 66.5t-172 151.5q-156 186 -155 430zM401 920q0 -33 22.5 -55.5t55.5 -22.5t56 22q20 27 20 56q0 33 -22.5 55t-53.5 22q-35 0 -55 -22q-23 -20 -23 -55z M1049 920q0 -33 22 -55.5t53 -22.5q29 0 56 22q23 27 22 56q0 33 -22.5 55t-55.5 22q-35 0 -55 -22.5t-20 -54.5z" />
<glyph horiz-adv-x="1937" d="M102 711q0 -303 215 -512q217 -209 525 -209q102 0 205.5 29.5t193.5 85t163 133t114 174.5q14 35 25 84t15.5 79.5t4.5 34.5q4 20 4 47v50h295v77h-289q-31 285 -240 469q-206 187 -491 187q-307 0 -525 -211q-215 -213 -215 -518zM180 711q0 272 195 454 q193 185 467 185q248 0 436 -160q186 -162 217 -406h-334v-77h334l-6 -93q-8 -115 -66.5 -209t-150.5 -172q-182 -156 -430 -155q-272 0 -467 182q-195 180 -195 451zM414 811q-10 -33 4 -59q12 -33 43 -41q28 -12 59 2q33 16 41 45q8 27 -4 57q-16 33 -45 41q-27 12 -57 -2 q-29 -12 -41 -43zM999 1083.5q-8 -30.5 5 -59.5q16 -29 43 -41q32 -10 59 2q31 16 39 45q12 31 -2 60q-10 27 -43 40q-33 10 -60 -4q-33 -12 -41 -42.5z" />
<glyph horiz-adv-x="1017" d="M61 90q0 -90 119 -90h797v78h-791q-35 0 -34 26q0 20 16 43l725 1031q16 25 27.5 40t15.5 23q25 43 25 94q0 90 -125 90h-697v-77h699q33 0 32 -25q0 -16 -8 -33q-4 -8 -12 -20.5t-21 -28.5l-710 -1010q-31 -45 -37 -57q-20 -39 -21 -84zM252 1757q0 -104 80 -174 q76 -68 188 -67q104 0 182 63q89 69 89 178h-64q-10 -88 -74 -133q-57 -41 -133 -41t-137 49q-59 47 -72 125h-59z" />
<glyph horiz-adv-x="790" d="M43 88q0 -88 86 -88h616v78h-577q-35 0 -35 20q0 14 27 47l516 623q12 14 20.5 27.5t14.5 25.5q10 25 10 56q0 88 -84 88h-553v-78h512q37 0 37 -21q0 -12 -10 -28q-6 -8 -19 -21l-514 -622q-27 -33 -37 -59.5t-10 -47.5zM127 1333q0 -104 80 -174q80 -68 190 -67 q100 0 183 63q88 72 88 178h-66q-10 -88 -74 -133q-53 -41 -133 -41q-74 0 -135 49q-61 45 -74 125h-59z" />
<glyph unicode=" "  horiz-adv-x="409" />
<glyph unicode="&#x09;" horiz-adv-x="409" />
<glyph unicode="&#xa0;" horiz-adv-x="409" />
<glyph unicode="!" horiz-adv-x="450" d="M150 66q0 -35 22 -56q23 -23 53 -22q29 0 56 22q22 23 22 56t-22 55q-23 20 -56 20t-55 -22q-20 -20 -20 -53zM186 281h78v1169h-78v-1169z" />
<glyph unicode="&#x22;" horiz-adv-x="677" d="M199 965h77v460h-77v-460zM403 965h76v460h-76v-460z" />
<glyph unicode="#" horiz-adv-x="1132" d="M63 553l9 -82h231l-65 -471h86l65 471h303l-65 -471h84l65 471h234l-9 82h-213l46 330h235l-8 82h-217l65 460h-86l-65 -460h-303l65 460h-86l-63 -460h-250l8 -82h231l-45 -330h-252zM401 553l43 330h304l-46 -330h-301z" />
<glyph unicode="$" d="M156 203h358v-203h78v203q182 0 285 80q102 77 102 229q0 160 -125 246q-74 51 -264 108v486h317v73h-317v134h-78v-134h-39q-139 0 -227 -69q-90 -72 -90 -205q0 -121 69.5 -203t288.5 -139v-533h-358v-73zM233 1145q0 121 84 170q61 37 197 37l-2 -463q-135 39 -197 86 q-82 66 -82 170zM590 276v510q190 -53 256 -127q55 -65 55 -157q0 -109 -82 -168q-78 -57 -229 -58z" />
<glyph unicode="%" horiz-adv-x="1810" d="M170 1147q0 -129 92 -217t215 -88q129 0 219 90q88 88 88 215q0 125 -90 215q-88 88 -217 88q-125 0 -215 -90q-92 -86 -92 -213zM252 1147q0 88 65 158q63 68 160 67q96 0 162 -67q66 -70 66 -158q0 -92 -66 -162q-70 -66 -162 -65q-98 0 -160 67q-66 66 -65 160z M395 -25h74l946 1475h-80zM1024 279q0 -127 92 -215.5t217 -88.5q127 0 217 90.5t90 213.5q0 125 -90 215q-88 88 -217 88q-123 0 -217 -90q-92 -90 -92 -213zM1108 279q0 94 65.5 159.5t159.5 65.5t162 -68q66 -65 66 -157q0 -94 -65.5 -160t-162.5 -66q-98 0 -159 68 q-66 63 -66 158z" />
<glyph unicode="&#x26;" horiz-adv-x="1357" d="M39 530q0 -272 194 -426q162 -129 396 -129q150 0 262 41q109 37 213 131l117 -147h98l-164 203q55 72 80 151q23 86 22 178q0 139 -38 218q-37 78 -140 184l-53 -51q92 -102 113 -140q39 -70 39 -190q0 -170 -74 -287l-676 762q-25 29 -43 51.5t-33 40.5q-53 72 -53 125 q0 59 29 84q29 23 100 23h545v73h-520q-104 0 -168 -43t-64 -131q0 -59 21 -100q20 -45 88 -129q-141 -86 -207 -182q-84 -125 -84 -310zM121 551q0 141 69 248q68 104 195 170l666 -764q-96 -90 -195 -123q-43 -16 -98.5 -22.5t-124.5 -6.5q-242 0 -381 146 q-131 137 -131 352z" />
<glyph unicode="'" horiz-adv-x="407" d="M164 973h80v463h-80v-463z" />
<glyph unicode="(" horiz-adv-x="790" d="M147 535q0 -268 125 -517q123 -248 334 -397l37 47q-195 156 -307 387q-111 229 -111 480q0 266 107 485q100 207 295 383l-37 47q-209 -166 -322 -393q-121 -246 -121 -522z" />
<glyph unicode=")" horiz-adv-x="790" d="M147 -332l39 -47q213 152 336 399q121 249 121 515q0 279 -121 524q-115 229 -319 391l-39 -47q197 -178 299 -391q102 -217 102 -477q0 -254 -112 -482q-57 -117 -132 -212t-174 -173z" />
<glyph unicode="*" horiz-adv-x="1019" d="M172 903l37 -51l270 160v-320h62v320l270 -160l37 51l-281 168l281 168l-37 47l-270 -162v301h-62v-301l-270 162l-37 -47l281 -168z" />
<glyph unicode="+" horiz-adv-x="1224" d="M131 440h442v-440h82v440h439v82h-441v443h-82v-443h-440v-82z" />
<glyph unicode="," horiz-adv-x="565" d="M190 -166h82l103 311h-101z" />
<glyph unicode="-" horiz-adv-x="677" d="M145 442h387v78h-387v-78z" />
<glyph unicode="." horiz-adv-x="569" d="M207 66q0 -33 22.5 -55.5t55.5 -22.5t55 22.5t22 55.5t-22 55q-20 20 -55 20q-33 0 -55.5 -22.5t-22.5 -52.5z" />
<glyph unicode="/" horiz-adv-x="569" d="M2 -25h86l479 1475h-86z" />
<glyph unicode="0" horiz-adv-x="1138" d="M100 483q0 -227 125 -368q121 -139 344 -140q221 0 346 140q123 141 123 368v457q0 233 -123 369q-127 141 -348 141t-344 -139q-123 -141 -123 -371v-457zM188 459v506q0 178 103 292q100 111 278 111q176 0 279 -111q100 -113 100 -292l-2 -506q0 -178 -100 -291 q-102 -111 -279 -111q-178 0 -278 111q-100 113 -101 291z" />
<glyph unicode="1" horiz-adv-x="1138" d="M412 1352h237v-1352h78v1425h-297z" />
<glyph unicode="2" horiz-adv-x="1138" d="M106 999q0 -174 138 -292l45 67q-94 104 -94 221q0 170 98 273q94 100 274 100q176 0 275 -102q96 -102 96 -279q0 -152 -217 -350q-39 -35 -137.5 -113t-259.5 -196q-213 -158 -213 -224q0 -49 24 -75q23 -29 66 -29h831v82h-809q-25 0 -24 18q0 31 217 187 q279 203 399 319q213 209 213 381q0 240 -143 361q-121 102 -320 102q-219 0 -340 -121q-119 -123 -119 -330z" />
<glyph unicode="3" horiz-adv-x="1138" d="M133 0h406q215 0 342 111q125 110 125 315q0 180 -113 291q-121 117 -322 117h-151l430 409q51 47 51 107q0 35 -24 57q-23 18 -86 18h-648v-73h648q20 0 20 -21q0 -27 -37 -59l-481 -465v-55h254q180 0 274 -95q96 -92 97 -254q0 -143 -97 -235q-96 -90 -233 -90h-455 v-78z" />
<glyph unicode="4" horiz-adv-x="1138" d="M61 485q0 -82 105 -82h592v-403h76v403h243v72h-246v975l-4 -4l-73 -98v-873h-574q-29 0 -28 27q0 4 2 12t6 21l557 915h-92l-484 -795q-47 -80 -55 -92q-25 -47 -25 -78z" />
<glyph unicode="5" horiz-adv-x="1138" d="M145 0h369q229 0 360 121q119 113 119 289q0 178 -110 299q-121 129 -324 129h-289v514h625v73h-707v-669h359q174 0 270 -99q88 -88 88 -239q0 -139 -86 -232q-98 -104 -276 -104h-398v-82z" />
<glyph unicode="6" horiz-adv-x="1138" d="M76 465q0 -227 155 -365q137 -125 338 -125q195 0 340 134q154 143 154 360q0 227 -156 367q-141 129 -340 129q-10 0 -24.5 -1t-30.5 -3q-6 0 -24.5 -4.5t-41 -10.5t-47 -12t-43.5 -12l338 503h-104l-328 -495q-41 -63 -68.5 -107.5t-43.5 -70.5q-35 -68 -54.5 -139.5 t-19.5 -147.5zM164 465q0 115 37 199q10 29 33.5 69.5t58.5 93.5q27 8 64.5 18.5t77.5 18.5t76 13.5t58 5.5q162 0 283 -117q121 -115 121 -297h-2q0 -182 -125 -301q-115 -111 -279 -111t-282 113q-121 115 -121 295z" />
<glyph unicode="7" horiz-adv-x="1138" d="M78 1352h860q39 0 39 -31q0 -10 -14 -45q-14 -33 -15 -33l-553 -1243h94l525 1188q12 31 22.5 52.5t14.5 33.5q10 24 10 59q0 47 -31 70q-29 23 -100 22h-852v-73z" />
<glyph unicode="8" horiz-adv-x="1138" d="M96 418q0 -211 152 -334q131 -109 321 -109q188 0 324 111q149 125 149 332q0 152 -94 264q-92 113 -233 139q104 37 159 105q63 80 64 194q0 147 -102 240q-100 90 -269 90q-170 0 -268 -92q-100 -90 -100 -238q0 -117 65 -194q53 -68 158 -109q-141 -25 -234 -135 q-92 -109 -92 -264zM184 418q0 164 125 264q109 90 260 90q145 0 260 -92q123 -104 123 -262q0 -172 -121 -277q-109 -96 -264 -96q-152 0 -264 96q-119 109 -119 277zM289 1120q0 121 76 193q74 68 204 67q133 0 205 -69q74 -72 74 -191h-2q0 -59 -16.5 -101t-51.5 -81 q-72 -84 -211 -84q-135 0 -211 84q-35 39 -51 82t-16 100z" />
<glyph unicode="9" horiz-adv-x="1138" d="M76 954q0 -225 155 -366q137 -129 338 -129q10 0 24.5 1t31.5 3q6 0 25.5 5t44 12t49 14.5t42.5 13.5l-344 -508h105l327 494q109 170 140 231q23 53 36 111.5t13 121.5q0 227 -156 365q-139 127 -340 127q-195 0 -344 -139q-147 -139 -147 -357zM164 954q0 182 127 303 q113 111 278 111q162 0 283 -114.5t121 -295.5h-2q0 -113 -31 -192q-12 -29 -32.5 -64.5t-49.5 -83.5q-23 -10 -62.5 -23t-82.5 -25.5t-82 -20.5t-64 -8q-166 0 -280 112q-123 119 -123 301z" />
<glyph unicode=":" horiz-adv-x="565" d="M205 66q0 -33 22.5 -55.5t55.5 -22.5t55 22.5t22 55.5t-22 55q-20 20 -55 20q-33 0 -55.5 -22.5t-22.5 -52.5zM205 711q0 -35 24 -56q20 -20 54 -20q33 0 55 22.5t22 53.5q0 33 -22.5 55t-54.5 22q-33 0 -55.5 -22.5t-22.5 -54.5z" />
<glyph unicode=";" horiz-adv-x="565" d="M186 -166h82l103 311h-101zM223 711q0 -35 25 -56q20 -20 53 -20t55.5 22.5t22.5 53.5q0 33 -22.5 55t-55.5 22t-55.5 -22.5t-22.5 -54.5z" />
<glyph unicode="&#x3c;" horiz-adv-x="1224" d="M131 430l963 -444v90l-883 405l883 408v88l-963 -445v-102z" />
<glyph unicode="=" horiz-adv-x="1224" d="M131 254h963v82h-963v-82zM131 629h963v80h-963v-80z" />
<glyph unicode="&#x3e;" horiz-adv-x="1224" d="M131 -14l963 444v102l-963 445v-88l879 -408l-879 -405v-90z" />
<glyph unicode="?" horiz-adv-x="903" d="M45 1047h82q0 137 90 233q86 92 234 92q147 0 235 -94q90 -96 90 -231q0 -195 -127 -281q-102 -68 -270 -68v-438h76v367q156 0 268 94q135 113 135 326q0 174 -113 288q-111 115 -294 115q-182 0 -295 -117q-111 -115 -111 -286zM340 66q0 -33 22.5 -55.5t55.5 -22.5 q31 0 55 24q21 25 21 54q0 33 -23 55q-25 20 -53 20q-33 0 -55.5 -22.5t-22.5 -52.5z" />
<glyph unicode="@" horiz-adv-x="1630" d="M119 440q0 -309 213 -526q209 -215 522 -215q201 0 369 96q172 100 262 262h-84q-90 -139 -230 -213q-135 -72 -321 -71q-270 0 -461 192q-190 190 -190 463q0 281 186 475q184 197 461 197q236 0 405 -142q178 -154 179 -387q0 -186 -104.5 -354t-240.5 -168 q-43 0 -57 23q-16 27 -16 65q0 27 6 51q2 20 16 62l197 586h-84l-51 -134q-33 92 -90.5 133.5t-126.5 41.5q-207 0 -349 -191q-131 -176 -131 -399q0 -127 72 -211q70 -84 195 -84q72 0 145 43q57 31 117 92l4 4q0 -72 39 -108q39 -39 100 -39q164 0 303 176 q137 178 137 424q0 248 -192 420q-195 170 -473 170q-297 0 -512 -215.5t-215 -518.5zM479 281q0 172 109 340q121 182 278 182q68 0 123 -67.5t55 -145.5q0 -164 -108 -340q-119 -193 -262 -193q-84 0 -139.5 61.5t-55.5 162.5z" />
<glyph unicode="A" horiz-adv-x="1241" d="M80 696h100v-696h84v696h811v-696h86v958q0 227 -133 361q-131 131 -358 131t-359 -131q-131 -129 -131 -361v-190h-100v-72zM264 768v215q0 180 110.5 284.5t295.5 104.5q186 0 297 -104q109 -102 108 -285v-215h-811z" />
<glyph unicode="B" horiz-adv-x="1148" d="M57 0h103h84h420q209 0 323 113q105 104 105 270q0 160 -101 272q-88 104 -190 107q119 39 172 135q20 41 31.5 91t11.5 112q0 147 -101 243q-106 106 -307 107q-219 0 -336 -119q-115 -121 -114 -362v-181h-101v-73h103v-641h-103v-74zM242 74v641h405q172 0 262 -88 q92 -90 92 -240q0 -145 -92 -225q-96 -88 -297 -88h-370zM242 788v234q0 170 104 266q90 88 254 88q156 0 242 -73.5t86 -202.5h-2q0 -162 -97 -238q-96 -74 -299 -74h-288z" />
<glyph unicode="C" horiz-adv-x="1021" d="M74 711q0 -328 219 -529q201 -182 483 -182h182v74h-165q-252 0 -428 155q-203 178 -203 482q0 307 203 485q176 156 428 156h168v73h-185q-287 0 -485 -184q-217 -199 -217 -530z" />
<glyph unicode="D" horiz-adv-x="1245" d="M61 1348h91v-1348h307q291 0 504 197q221 205 221 518t-195 514q-189 196 -474 196h-3h-276h-84h-91v-77zM236 78v1270h268q268 0 434 -193q156 -180 156 -440q0 -270 -191 -455q-188 -182 -475 -182h-192z" />
<glyph unicode="E" horiz-adv-x="1017" d="M76 711q0 -328 219 -529q201 -182 483 -182h164v74h-131q-248 0 -434 153q-215 174 -215 469h780v72h-780q0 217 176 397q184 186 444 187h160v73h-164q-285 0 -483 -184q-219 -201 -219 -530z" />
<glyph unicode="F" horiz-adv-x="903" d="M115 0h84v676h589v72h-589v251q0 156 86 254q82 98 223 99h280v73h-309q-143 0 -248 -106q-117 -121 -116 -315v-1004z" />
<glyph unicode="G" horiz-adv-x="1587" d="M78 711q0 -303 211 -521q209 -215 510 -215t501 209q209 218 209 572h-710v-72h620q0 -266 -180 -448q-178 -182 -440 -183q-268 0 -450.5 194.5t-182.5 463.5q0 272 182 466.5t451 194.5q150 0 278 -57q135 -59 217 -160l60 62q-100 113 -246 174q-147 59 -309 59 q-303 0 -512 -217q-209 -215 -209 -522z" />
<glyph unicode="H" horiz-adv-x="1247" d="M143 0h86v707h787v-707h88v1425h-88v-645h-787v645h-86v-1425z" />
<glyph unicode="I" horiz-adv-x="450" d="M182 0h86v1425h-86v-1425z" />
<glyph unicode="J" horiz-adv-x="677" d="M55 0h164q164 0 281 98q123 107 123 289v1038h-88v-1009q0 -176 -107 -264q-86 -74 -219 -74h-154v-78z" />
<glyph unicode="K" horiz-adv-x="1150" d="M104 0h86v707h322q221 0 319 -101q100 -100 101 -301v-305h86v305q0 225 -119 350q-102 111 -260 113q117 25 203 211l205 446h-101l-135 -311q-43 -100 -84 -164.5t-76 -97.5q-78 -72 -235 -72h-228v645h-84v-1425z" />
<glyph unicode="L" horiz-adv-x="790" d="M63 418q0 -197 117 -314q104 -104 248 -104h299v74h-270q-139 0 -226 98q-84 100 -84 250v1003h-84v-1007z" />
<glyph unicode="M" horiz-adv-x="1697" d="M59 0h84l179 1309q10 59 28 59t37 -59l340 -1170q16 -53 28.5 -86t22.5 -45q17 -24 66 -24h4q51 0 70 26q23 29 51 129l342 1170q18 59 37 59q18 0 28 -59l176 -1309h86l-176 1303q-8 70 -32 110q-23 37 -74 37q-59 0 -82 -28.5t-55 -143.5l-345 -1157q-4 -8 -5 -16.5 t-5 -16.5q-6 -14 -14 -14t-14 10q-4 6 -15 37l-342 1157q-16 59 -31.5 95t-25.5 50q-20 27 -80 27q-55 0 -76 -37q-10 -16 -18 -44t-12 -66z" />
<glyph unicode="N" horiz-adv-x="1247" d="M139 0h86v1335q0 37 25 37q16 0 57 -80l565 -1218q25 -55 62 -80q25 -18 67 -19q107 1 107 103v1372h-88v-1350q0 -39 -25 -39q-16 0 -32 29l-596 1274q-23 51 -52 70q-27 16 -71 16q-55 0 -80 -33q-25 -35 -25 -82v-1335z" />
<glyph unicode="O" horiz-adv-x="1585" d="M74 711q0 -303 211 -521q209 -215 510 -215q307 0 518 218q211 213 211 518q0 307 -211 524q-213 215 -518 215q-303 0 -512 -217q-209 -215 -209 -522zM162 711q0 272 182 466.5t451 194.5q270 0 454.5 -194.5t184.5 -466.5t-185 -465q-186 -193 -454 -193t-450.5 194.5 t-182.5 463.5z" />
<glyph unicode="P" horiz-adv-x="1019" d="M10 573h127v-573h84v573h352q190 0 313.5 117t123.5 320q0 205 -125 323q-123 117 -312 117q-205 0 -325 -127q-111 -117 -111 -293v-379h-127v-78zM221 651v387q0 143 101 238q102 96 251 96q154 0 252 -98q97 -96 97 -264q0 -170 -98.5 -264.5t-250.5 -94.5h-352z" />
<glyph unicode="Q" horiz-adv-x="1583" d="M254 217q43 -49 113.5 -91t138 -72.5t116.5 -47.5l48 -16h16q23 -2 49.5 -3t48.5 -1v-295h78v289q279 27 467 239q189 211 189 492q0 305 -213 524q-213 215 -519 215q-303 0 -512 -217q-208 -214 -208 -519q0 -279 188 -497zM154 711q0 272 184 467q181 194 447 194h3 q266 0 455 -194q184 -197 184 -467h-2q0 -252 -159 -439q-160 -188 -406 -215v334h-78v-334l-92 6q-115 8 -209 66.5t-172 151.5q-156 186 -155 430z" />
<glyph unicode="R" horiz-adv-x="1136" d="M63 676h123v-676h84v676h375q172 0 262 -80q76 -72 76 -193v-403h90v391q0 137 -73.5 223t-192.5 107q121 43 182 137q53 88 53 221q0 164 -120 269q-121 102 -316 102q-190 0 -307 -123q-115 -125 -115 -328v-251h-121v-72zM268 748v256q0 166 90 268q86 100 250 100 q147 0 248 -84q98 -84 98 -217h-2q0 -152 -94 -237q-92 -86 -276 -86h-314z" />
<glyph unicode="S" d="M88 0h514q211 0 326 94q119 94 119 266q0 225 -228 334q-104 35 -208.5 68t-209.5 69q-225 80 -225 267q0 121 74 186q76 63 242 64h473v77h-508q-160 0 -260 -77q-109 -86 -109 -242q0 -231 227 -336q104 -35 209 -66.5t209 -68.5q113 -41 168 -113.5t55 -173.5 q0 -131 -96 -203q-95 -67 -267 -67h-5h-500v-78z" />
<glyph unicode="T" horiz-adv-x="901" d="M2 1352h408v-1352h84v1352h405v73h-897v-73z" />
<glyph unicode="U" horiz-adv-x="1247" d="M133 465q0 -227 133 -361q131 -129 357 -129q229 0 360 131q131 130 131 359v960h-86v-987q0 -178 -113 -282q-113 -102 -292 -103q-186 0 -297 105q-109 102 -109 280v987h-84v-960z" />
<glyph unicode="V" horiz-adv-x="1017" d="M-29 1425l416 -1349q18 -61 45 -82q27 -18 70 -19q43 0 69.5 20.5t44.5 80.5l447 1349h-84l-426 -1288q-29 -84 -51 -84q-27 0 -51 84l-396 1288h-84z" />
<glyph unicode="W" horiz-adv-x="1923" d="M131 391q0 -188 121 -303q119 -113 299 -113q145 0 240 64q92 61 170 197q76 -137 172 -199q92 -61 237 -62q182 0 303 115q119 113 119 301v1034h-86v-1024q0 -158 -98 -251q-100 -96 -244 -97q-145 0 -246 99q-117 113 -117 319v954h-83v-954q0 -209 -117 -321 q-100 -96 -244 -97q-145 0 -246 97q-96 92 -96 251v1024h-84v-1034z" />
<glyph unicode="X" horiz-adv-x="1249" d="M35 0q209 0 368 135q162 137 224 354q55 -219 219 -354q159 -135 368 -135v86q-211 0 -376 180q-172 186 -172 449q0 266 174 452q162 180 374 181v86q-213 0 -370 -138q-162 -137 -223 -354q-57 217 -220 356q-160 135 -366 136v-86q209 0 377 -187q170 -188 170 -446 t-170 -445q-170 -184 -377 -184v-86z" />
<glyph unicode="Y" d="M141 1036q0 -201 119 -325q111 -117 272 -117v-594h86v594q160 0 275 123q117 118 117 319v389h-84v-395q0 -164 -99 -262q-96 -96 -252 -96q-154 0 -252 98t-98 260v395h-84v-389z" />
<glyph unicode="Z" horiz-adv-x="1017" d="M51 90q0 -90 119 -90h797v78h-791q-35 0 -35 26q0 20 17 43l725 1031q16 25 27.5 40t15.5 23q25 43 24 94q0 90 -125 90h-696v-77h698q33 0 33 -25q0 -16 -8 -33q-4 -8 -12.5 -20.5t-20.5 -28.5l-710 -1010q-31 -45 -37 -57q-20 -39 -21 -84z" />
<glyph unicode="[" horiz-adv-x="565" d="M143 -379h279v78h-201v1649h201v77h-279v-1804z" />
<glyph unicode="\" horiz-adv-x="565" d="M-135 1450l756 -1475h79l-753 1475h-82z" />
<glyph unicode="]" horiz-adv-x="565" d="M143 -301v-78h279v1804h-279v-77h201v-1649h-201z" />
<glyph unicode="^" horiz-adv-x="1224" d="M223 633h76l313 618l310 -618h79l-352 690h-76z" />
<glyph unicode="_" horiz-adv-x="1019" d="M0 -446v-103h1020v103h-1020z" />
<glyph unicode="`" horiz-adv-x="450" d="M51 1368l273 -281h75l-243 281h-105z" />
<glyph unicode="a" d="M98 481q0 -215 138 -358q135 -143 331 -143q98 0 185 43q10 6 35.5 24.5t56 43t62.5 51t55 44.5v-186h75v481q0 215 -137 359q-135 143 -332 143q-201 0 -336 -143q-133 -143 -133 -359zM178 481q0 182 119 307q117 123 270 123q172 0 285 -131q109 -127 109 -299v-209 q-25 -23 -58 -51t-66.5 -56t-63.5 -49.5t-44 -29.5q-35 -16 -75 -24.5t-87 -8.5q-152 0 -270 123q-119 121 -119 305z" />
<glyph unicode="b" horiz-adv-x="1132" d="M96 481q0 -215 137 -358q135 -143 332 -143q199 0 336 143q135 141 135 358t-137 361q-135 141 -334 141q-47 0 -90 -10t-94 -33q-31 -12 -63.5 -34.5t-62.5 -46t-51.5 -44t-31.5 -31.5v641h-76v-944zM172 481v213q10 10 33.5 35t54.5 52.5t66.5 53t70.5 39.5 q47 18 84 27.5t84 9.5q147 0 269 -127q118 -125 118 -303q0 -180 -118 -305q-117 -123 -269 -123q-170 0 -282 129q-111 125 -111 299z" />
<glyph unicode="c" horiz-adv-x="790" d="M78 492q0 -215 139 -355q137 -137 352 -137h144v82h-140q-188 0 -301 113q-114 114 -114 294q0 185 116 299q119 115 299 115h140v80h-144q-217 0 -354 -137q-137 -135 -137 -354z" />
<glyph unicode="d" horiz-adv-x="1136" d="M98 481q0 -211 138 -358q135 -143 333 -143q199 0 334 143q135 141 135 358v944h-77v-626l-19 17q-20 18 -51 41.5t-68 47t-71 37.5q-51 20 -92.5 30.5t-92.5 10.5q-199 0 -334 -143q-135 -141 -135 -359zM178 481q0 178 119 307q117 123 272 123q47 0 82 -8t82 -26 q39 -16 80 -46t74 -60t55 -53l21 -22l-2 -215q0 -176 -111 -301q-111 -127 -283 -127q-152 0 -270 123q-119 125 -119 305z" />
<glyph unicode="e" d="M63 479q0 -215 148 -358q147 -141 371 -141q203 0 346 143q143 148 143 338h-86q0 -170 -123 -289q-121 -119 -299 -119q-180 0 -299 125q-20 20 -39 45l768 525q-68 109 -180 172q-109 63 -250 63q-219 0 -360 -147q-139 -145 -140 -357zM143 475q0 174 121 307 q119 129 301 129q195 0 312 -147h-3l-686 -475q-18 41 -31.5 89t-13.5 97z" />
<glyph unicode="f" horiz-adv-x="569" d="M-2 893h98v-893h76v891h399v74h-399v141q0 121 80 188q66 57 164 58h155v73h-155q-123 0 -215 -73q-104 -84 -105 -226v-86v-75h-98v-72z" />
<glyph unicode="g" horiz-adv-x="1136" d="M98 481q0 -211 138 -358q135 -143 333 -143q49 0 115 3t131 40q27 16 53.5 42.5t47 53t34.5 45.5l13 18v-116q0 -246 -113 -357q-98 -100 -307 -100q-59 0 -123 14q-35 8 -63.5 16.5t-57.5 18.5l-25 -74q141 -47 281 -47q213 0 350 127q133 127 133 348v469 q0 211 -137 359q-135 143 -334 143t-334 -143q-135 -141 -135 -359zM178 481q0 178 119 307q117 123 272 123q168 0 285 -131q109 -127 109 -299l-2 -172l-13 -27q-14 -28 -36.5 -65t-53.5 -74t-67 -57q-57 -31 -117 -32t-107 -1q-152 0 -270 123q-119 125 -119 305z" />
<glyph unicode="h" horiz-adv-x="1019" d="M123 0h78v578q0 147 88 241q88 92 221 92q131 0 219 -94q90 -94 90 -239v-578h78v588q0 174 -113 286q-113 109 -276 109q-98 0 -176 -39q-76 -39 -133 -110v591h-76v-385v-1040z" />
<glyph unicode="i" horiz-adv-x="450" d="M176 1239q0 -27 19 -45q16 -16 43 -16t45 18q16 16 16 43t-18 43q-20 16 -43 16q-29 0 -43 -18q-18 -16 -19 -41zM199 0h77v965h-77v-965z" />
<glyph unicode="j" horiz-adv-x="450" d="M31 -391v-72h45q127 0 217 72q104 82 104 227v1129h-78v-1108q0 -123 -79 -191q-66 -57 -164 -57h-45zM297 1239q0 -27 18 -45q16 -16 43 -16t45 18q17 16 17 43t-19 43q-20 16 -43 16q-27 0 -45 -18q-16 -16 -16 -41z" />
<glyph unicode="k" horiz-adv-x="905" d="M100 0h78v487h273q111 0 178 -67q66 -70 65 -168v-252h78v256q0 141 -86 225q-74 74 -182 76q49 29 92 90q16 27 33.5 52.5t36.5 52.5l139 213h-96l-113 -170q-43 -68 -76 -110t-53 -62q-61 -61 -131 -62h-160v864h-76v-1425z" />
<glyph unicode="l" horiz-adv-x="450" d="M186 0h78v1425h-78v-1425z" />
<glyph unicode="m" horiz-adv-x="1472" d="M119 0h78v639q0 131 79 205q69 67 167 67h3q102 0 175 -67q78 -78 77 -205v-639h76v639q0 131 74 203q75 69 175 69h3q100 0 172 -67q78 -78 78 -205v-639h78v639q0 160 -94 254q-94 90 -236 90q-113 0 -186 -49q-70 -45 -107 -139q-61 188 -287 188q-141 0 -233 -92 q-92 -90 -92 -252v-639z" />
<glyph unicode="n" horiz-adv-x="1015" d="M121 0h78v578q0 147 88 241q88 92 221 92q131 0 219 -94q90 -94 90 -239v-578h78v588q0 174 -113 286q-113 109 -276 109q-164 0 -275 -111q-111 -109 -110 -284v-588z" />
<glyph unicode="o" d="M78 481q0 -209 141 -356q141 -145 348 -145q205 0 346 149q144 149 144 352q0 205 -144 355q-141 147 -348 147q-205 0 -346 -147.5t-141 -354.5zM158 481q0 172 118 303q117 127 291 127t291 -129t117 -301h-2q0 -176 -117 -301q-115 -127 -291 -127q-174 0 -290.5 129 t-116.5 299z" />
<glyph unicode="p" d="M96 -463h78v619q29 -29 56.5 -58.5t70.5 -54.5q68 -41 141.5 -52t124.5 -11q199 0 334 143q137 143 137 358q0 213 -137 361q-135 141 -336 141q-199 0 -334 -143q-135 -141 -135 -359v-944zM172 281v200q0 170 115 301q111 129 280 129q147 0 269 -127 q119 -129 118 -303h-2q0 -180 -116 -305q-117 -123 -271 -123q-47 0 -113.5 16.5t-132.5 51.5q-51 29 -82.5 77t-64.5 83z" />
<glyph unicode="q" horiz-adv-x="1132" d="M96 481q0 -211 137 -358q135 -143 334 -143q49 0 115 12t131 51q51 31 85 76t63 78v-656h75v940q0 211 -137 359q-135 143 -334 143t-334 -143q-135 -141 -135 -359zM176 481q0 178 119 307q117 123 272 123q168 0 285 -131q109 -127 109 -299v-147q-29 -47 -68 -112.5 t-105 -106.5q-57 -35 -116.5 -48.5t-106.5 -13.5q-152 0 -270 123q-119 125 -119 305z" />
<glyph unicode="r" horiz-adv-x="569" d="M57 0h76v504q0 164 90 276q88 111 207 111h82v74h-90q-92 0 -174 -58q-39 -27 -66.5 -68.5t-48.5 -80.5v207h-76v-965z" />
<glyph unicode="s" horiz-adv-x="905" d="M76 729q0 -152 176 -217q80 -23 160 -42t159 -44q172 -53 172 -190q0 -74 -57 -119q-55 -43 -178 -43h-430v-74h414q166 0 249 63q88 64 88 185q0 160 -176 231q-80 23 -160.5 43.5t-160.5 42.5q-172 49 -172 166q0 74 51 119q51 41 119 41h426v74h-434q-117 0 -181 -68 q-66 -66 -65 -168z" />
<glyph unicode="t" horiz-adv-x="569" d="M27 893h98v-617q0 -127 72 -202q70 -74 209 -74h137v74h-154q-86 0 -139 53q-49 51 -49 141v623h342v74h-342v266h-76v-266h-98v-72z" />
<glyph unicode="u" horiz-adv-x="1017" d="M123 377q0 -176 110.5 -286.5t274.5 -110.5t276 112q111 111 111 285v588h-78v-578q0 -150 -90 -244q-86 -90 -219 -90t-221 92q-88 90 -88 242v578h-76v-588z" />
<glyph unicode="v" horiz-adv-x="903" d="M-8 965l368 -934q20 -51 91 -51q72 0 92 51l368 934h-90l-342 -863q-16 -41 -28 -41q-14 0 -29 41l-340 863h-90z" />
<glyph unicode="w" horiz-adv-x="1474" d="M121 326q0 -162 96 -258q88 -88 229 -88q115 0 187 49q70 45 104 139q31 -92 105 -141q72 -47 184 -47q143 0 235.5 92t92.5 254v639h-78v-639q0 -133 -78 -207q-70 -66 -172 -66q-104 0 -174 68q-78 74 -78 205v639h-76v-639q0 -133 -77 -207q-70 -66 -175 -66 q-102 0 -172 68q-78 74 -77 205v639h-76v-639z" />
<glyph unicode="x" horiz-adv-x="903" d="M37 0q137 0 252 78q109 72 162 207q51 -133 165 -209q109 -76 250 -76v74q-147 0 -262 121q-113 119 -112 286q0 168 114.5 289t259.5 121v74q-137 0 -252 -78q-111 -74 -163 -207q-51 129 -164 209q-115 76 -250 76v-74q147 0 262 -121q113 -123 113 -289t-115 -286.5 t-260 -120.5v-74z" />
<glyph unicode="y" horiz-adv-x="1015" d="M121 377q0 -170 112 -287q110 -110 274 -110h3q197 0 305 151l4 -594h76v1428h-78v-578q0 -152 -88 -242q-86 -92 -221 -92q-131 0 -219 92q-90 90 -90 242v578h-78v-588z" />
<glyph unicode="z" horiz-adv-x="790" d="M45 88q0 -88 86 -88h617v78h-578q-35 0 -35 20q0 18 27 47l516 623q10 14 18.5 27.5t14.5 25.5q12 20 12 56q0 88 -84 88h-553v-78h512q37 0 37 -21q0 -12 -10 -28q-14 -14 -19 -21l-514 -622q-16 -16 -24.5 -32t-12.5 -28q-10 -20 -10 -47z" />
<glyph unicode="{" horiz-adv-x="569" d="M123 494q59 0 88 -97q20 -70 20 -215v-317q0 -143 33 -195q33 -49 105 -49h77v78h-75q-35 0 -49 39q-12 39 -13 162v315q0 102 -30 188q-29 82 -76 132q49 43 78 127q29 86 28 188v321q0 119 15 160q16 41 47 41h75v78h-77q-70 0 -105 -53q-33 -51 -33 -191v-321 q0 -137 -24.5 -225.5t-83.5 -88.5v-77z" />
<glyph unicode="|" horiz-adv-x="450" d="M184 0h82v1425h-82v-1425z" />
<glyph unicode="}" horiz-adv-x="569" d="M123 -305v-78h78q70 0 104 53q33 51 33 191v319q0 135 24 226q25 88 84 88v77q-61 0 -86 86q-23 86 -22 226v319q0 143 -33 195q-35 49 -104 49h-78v-78h76q35 0 49 -39q12 -41 12 -162v-317q0 -102 31 -188q27 -84 76 -132q-49 -43 -78 -127q-29 -86 -29 -188v-319 q0 -119 -14 -160q-16 -41 -47 -41h-76z" />
<glyph unicode="~" horiz-adv-x="1224" d="M131 416l53 -49q47 72 80 100q47 45 113 45q72 0 229 -70q160 -68 221 -67q86 0 162 53q58 43 105 121l-56 49q-25 -35 -44 -60.5t-36 -39.5q-51 -47 -106 -47q-76 0 -233.5 69.5t-223.5 69.5q-86 0 -162 -53q-55 -43 -102 -121z" />
<glyph unicode="&#xa1;" horiz-adv-x="450" d="M147 920q0 -33 23 -55.5t55 -22.5q33 0 55.5 22.5t22.5 55.5t-22 55q-20 20 -56 20q-33 0 -55.5 -22.5t-22.5 -52.5zM186 -463h78v1165h-78v-1165z" />
<glyph unicode="&#xa2;" horiz-adv-x="1077" d="M244 729q0 -164 100 -252q102 -90 256 -90v-305h78v305h156v72h-224q-133 0 -209 73q-74 70 -73 197q0 129 73 201q76 72 209 71h224v74h-156v279h-78v-279q-156 0 -256 -92t-100 -254z" />
<glyph unicode="&#xa3;" d="M31 0h682q184 0 293 117q98 106 98 282v76h-84v-59q0 -158 -86 -246q-88 -90 -244 -88l-407 4q78 59 96 117q10 29 15 80t5 123v307h189v82h-191v178q0 188 72 289q76 111 248 110q49 0 80 -6q16 -4 38.5 -9t53.5 -14l29 70q-29 8 -54.5 15.5t-52.5 11.5q-25 4 -52.5 7 t-56.5 3q-203 0 -305 -145q-82 -123 -82 -318v-192h-133v-82h135v-371q0 -119 -71 -190q-68 -70 -187 -70h-28v-82z" />
<glyph unicode="&#xa4;" horiz-adv-x="1179" d="M90 479h174q49 -172 187 -297q201 -182 483 -182h182v74h-166q-252 0 -428 155q-59 53 -101 115t-67 135h699v82h-719q-14 66 -15 150q0 76 13 143h721v80h-701q47 154 170 262q176 156 428 156h168v73h-184q-287 0 -485 -184q-139 -127 -189 -307h-170v-80h152 q-4 -35 -7.5 -70.5t-3.5 -72.5q0 -80 13 -150h-154v-82z" />
<glyph unicode="&#xa5;" d="M25 1343q156 0 292 -131q139 -133 185 -333h-252v-82h268q6 -23 6 -43v-41v-49h-274v-82h276v-582h82v582h277v82h-279v49q0 8 1 18t1 25q4 29 8 41h269v82h-254q45 203 186 333q137 131 293 131v82q-184 0 -340 -143q-158 -145 -207 -340q-43 195 -201 340 q-152 143 -337 143v-82z" />
<glyph unicode="&#xa6;" horiz-adv-x="450" d="M184 0h82v545h-82v-545zM184 879h82v544h-82v-544z" />
<glyph unicode="&#xa7;" horiz-adv-x="1019" d="M139 696q0 -145 164 -241q74 -35 149.5 -70t151.5 -74q162 -86 162 -225q0 -80 -63.5 -133t-165.5 -53q-106 0 -183 41q-55 33 -114 106l-56 -55q74 -72 142 -107q84 -45 206 -45q137 0 226 72q86 70 86 207q0 74 -58 143q-41 53 -118 98q92 0 151 58q62 57 62 147 q0 152 -164 254q-76 39 -152 77t-149 79q-162 92 -162 225q0 76 63 133q61 55 168 56q92 0 168 -54q74 -53 117 -137l59 53q-63 96 -151 150q-86 49 -199 49q-129 0 -213 -76q-86 -74 -86 -188q0 -102 68 -176q51 -57 135 -97l-6 -4q-102 0 -170 -55t-68 -158zM211 700 q0 70 49 117q49 43 121 43q66 0 225 -80q197 -102 197 -213h-2q0 -70 -47 -114q-49 -43 -119 -43q-66 0 -227 79q-197 100 -197 211z" />
<glyph unicode="&#xa8;" horiz-adv-x="450" d="M-4 1204q0 -29 20.5 -49t49.5 -20t49 20t20 49q0 31 -20 49q-23 18 -49 19q-31 0 -50 -21q-20 -18 -20 -47zM317 1204q0 -29 20.5 -49t49.5 -20t49 20q19 18 19 49q0 27 -19 49q-23 18 -49 19q-31 0 -49 -21q-20 -18 -21 -47z" />
<glyph unicode="&#xa9;" horiz-adv-x="1386" d="M78 909q0 -260 180 -440q178 -184 434 -184t438 184q179 180 179 440q0 262 -181 445q-182 184 -436 184q-258 0 -436 -184.5t-178 -444.5zM154 909q0 236 155 400q154 164 383 164q227 0 385 -166q158 -169 158 -398q0 -225 -158 -393q-158 -166 -385 -166 q-229 0 -385 166q-154 162 -153 393zM348 918q0 -180 121 -295q113 -102 268 -103h103v41h-92q-137 0 -238 88q-113 100 -113 269q0 174 113 272q98 86 238 86h92v41h-103q-160 0 -268 -103q-121 -111 -121 -296z" />
<glyph unicode="&#xaa;" horiz-adv-x="657" d="M47 1163q0 -133 82 -217q80 -84 201 -84q55 0 112 27q25 10 68 47v53q-82 -82 -180 -82q-94 0 -164 74q-70 70 -70 182q0 109 72 185q70 74 162 73q102 0 170 -78q66 -78 65 -180v-289h45v289q0 133 -82 217q-80 84 -198 84q-119 0 -201 -86q-82 -84 -82 -215z" />
<glyph unicode="&#xab;" horiz-adv-x="790" d="M100 481l244 -315h94l-243 315l243 316h-94zM350 481l244 -315h96l-246 315l246 316h-96z" />
<glyph unicode="&#xac;" horiz-adv-x="1769" d="M119 0h78v639q0 131 79 205q70 68 170 67q102 0 175 -67q78 -78 77 -205v-107v-102v-430h76v395l502 -231v-164h78v127l305 -141v90l-307 141v422q0 29 -2 54.5t-9 49.5l318 146v88l-344 -160q-20 41 -55 76q-94 90 -236 90q-113 0 -186 -49q-70 -45 -107 -139 q-61 188 -287 188q-141 0 -233 -92q-92 -90 -92 -252v-639zM397 1128l37 -51l271 160v-319h61v319l270 -160l37 51l-280 168l280 168l-37 47l-270 -161v301h-61v-301l-271 161l-37 -47l281 -168zM772 567v72q0 131 76 203q76 70 178 69q100 0 172 -67q12 -14 23.5 -29 t19.5 -31zM776 481l492 228q4 -16 6 -34t2 -36v-387z" />
<glyph unicode="&#xad;" horiz-adv-x="677" d="M145 442h387v78h-387v-78z" />
<glyph unicode="&#xae;" horiz-adv-x="1386" d="M78 893q0 -260 180 -440q178 -184 434 -185q256 0 438 185q179 180 179 440q0 262 -181 444q-182 184 -436 185q-258 0 -436 -184.5t-178 -444.5zM154 893q0 236 155 399q154 164 383 164q227 0 385 -166q158 -168 158 -397q0 -225 -158 -393q-158 -166 -385 -166 q-229 0 -385 166q-154 162 -153 393zM461 524h49v533q0 88 49 141q47 53 141 53q88 0 144 -43q53 -47 53 -116q0 -80 -55 -125q-53 -47 -156 -47h-131v-37h166q100 0 149 -43q43 -37 43 -103v-213h52v207q0 74 -41 119q-39 45 -109 57q68 20 100 70q31 49 31 119 q0 86 -67.5 141t-178.5 55q-113 0 -176 -63.5t-63 -173.5v-531z" />
<glyph unicode="&#xb0;" horiz-adv-x="573" d="M51 1214q0 -86 70 -159q68 -68 168 -68q111 0 176 80q57 74 57 178q0 86 -67 152q-70 63 -168 63q-100 0 -168 -77.5t-68 -168.5zM123 1214v19q0 74 59 121q45 39 107 39q70 0 119 -50q51 -47 51 -108h-2q8 -76 -47 -129q-53 -51 -123 -51q-76 0 -119 47q-45 49 -45 112z " />
<glyph unicode="&#xb1;" horiz-adv-x="1521" d="M225 238l58 -58l387 385l-60 58zM225 1186l385 -385l60 57l-387 385zM846 565l387 -385l57 58l-385 385zM846 858l59 -57l385 385l-57 57z" />
<glyph unicode="&#xb2;" horiz-adv-x="692" d="M70 1327q0 -106 82 -176l26 41q-55 57 -55 133q0 106 57 164q55 59 164 59q106 0 166 -61q57 -59 57 -168q0 -92 -129 -211q-35 -31 -239 -184q-127 -96 -127 -133q0 -63 53 -64h498v49h-484q-4 0 -14 10q86 70 171 138.5t169 140.5q80 70 118 134.5t38 119.5 q0 143 -86 217q-72 61 -191 61q-135 0 -204.5 -73.5t-69.5 -196.5z" />
<glyph unicode="&#xb3;" horiz-adv-x="684" d="M80 735h246q129 0 202 68q76 65 76 188q0 109 -72 176q-68 68 -190 68h-90l260 246q31 31 31 63q0 29 -19 39q-16 8 -51 8h-387v-45h389q12 0 12 -12t-22 -35l-289 -280v-33h154q106 0 164 -58q59 -55 59 -151q0 -86 -59 -141q-59 -53 -142 -54h-272v-47z" />
<glyph unicode="&#xb4;" horiz-adv-x="450" d="M53 1087h74l270 281h-102z" />
<glyph unicode="&#xb5;" horiz-adv-x="1015" d="M121 -463h78l4 594q104 -152 305 -151q164 0 274 112q113 113 113 285v588h-80v-578q0 -154 -88 -244q-90 -90 -221 -90q-133 0 -221 92q-88 94 -88 242v578h-76v-1428z" />
<glyph unicode="&#xb6;" horiz-adv-x="1224" d="M264 1032q0 -158 115 -276q111 -117 252 -117v-821h78v1534h174v-1534h78v1607h-332q-139 0 -252 -116q-113 -119 -113 -277z" />
<glyph unicode="&#xb7;" horiz-adv-x="626" d="M190 504q0 -61 46 -96q37 -27 75 -27q27 0 56 12q31 14 45 33q24 33 24 74q0 27 -12 55.5t-33 42.5q-33 27 -76 27q-29 0 -55 -13q-29 -12 -43 -32q-27 -33 -27 -76z" />
<glyph unicode="&#xb8;" horiz-adv-x="452" d="M29 -350q86 -35 176 -35t147 33q72 41 72 123q0 57 -49 98q-51 39 -113 39q-10 -2 -18 -3t-19 -5q-18 -6 -30 -13l-9 4l103 117h-70l-115 -153l35 -25q29 16 45 18l22.5 4.5t29.5 6.5q53 0 83 -33q25 -29 25 -59q0 -51 -51 -78q-39 -23 -94 -23q-72 0 -146 37z" />
<glyph unicode="&#xb9;" horiz-adv-x="448" d="M129 1556h145v-811h45v857h-180z" />
<glyph unicode="&#xba;" horiz-adv-x="647" d="M31 1153q0 -123 84 -213q82 -88 209 -88q123 0 208 90q84 90 84 211q0 123 -84 213q-82 88 -208 88q-123 0 -209 -90q-84 -90 -84 -211zM78 1153q0 104 72 182q70 76 174 76q102 0 174 -78q69 -76 69 -180q0 -102 -71 -180q-70 -76 -172 -76q-104 0 -177 78 q-70 80 -69 178z" />
<glyph unicode="&#xbb;" horiz-adv-x="790" d="M100 166h95l243 315l-243 316h-95l244 -316zM350 166h94l246 315l-246 316h-94l244 -316z" />
<glyph unicode="&#xbc;" horiz-adv-x="1529" d="M121 1470h139v-811h43v857h-172zM193 -4h77l942 1472h-79zM799 295q0 -49 63 -49h357v-242h45v242h145v43h-147v583l-48 -59v-524h-344q-16 0 -16 16l4 21l336 548h-57l-289 -477q-10 -16 -19.5 -32.5t-21.5 -32.5q-8 -20 -8 -37z" />
<glyph unicode="&#xbd;" horiz-adv-x="1558" d="M125 1473h154v-822h49v865h-191zM168 -4h76l944 1472h-80zM881 598q0 -106 82 -176l26 41q-55 57 -55 133q0 106 57 164q55 59 164 59q106 0 166 -61q57 -59 57 -168q0 -92 -129 -211q-35 -31 -239 -184q-127 -96 -127 -134q0 -63 53 -63h498v49h-484q-4 0 -14 10 q86 70 171 138.5t169 140.5q80 70 118 134.5t38 119.5q0 143 -86 217q-72 61 -191 61q-135 0 -204.5 -73.5t-69.5 -196.5z" />
<glyph unicode="&#xbe;" horiz-adv-x="1712" d="M123 618h246q129 0 202 68q76 65 76 188q0 109 -72 177q-68 68 -190 67h-90l260 246q31 31 31 63q0 29 -19 39q-16 8 -51 9h-387v-45h389q12 0 12 -13q0 -12 -22 -35l-289 -280v-33h154q106 0 164 -57q59 -55 59 -152q0 -86 -59 -141q-59 -53 -142 -53h-272v-48zM393 -4 h78l942 1472h-80zM979 285q0 -49 63 -49h357v-242h45v242h145v43h-147v583l-47 -59v-524h-344q-16 0 -17 16l4 20l336 549h-57l-289 -477q-10 -16 -19.5 -32.5t-21.5 -32.5q-8 -20 -8 -37z" />
<glyph unicode="&#xbf;" horiz-adv-x="903" d="M45 -61q0 -174 113 -287q115 -115 293 -115q180 0 294 115q113 113 113 287h-82q0 -137 -92 -232q-88 -94 -233 -94t-234 94q-90 96 -90 232q0 193 127 278q100 68 270 68v438h-78v-365q-154 0 -266 -94q-135 -115 -135 -325zM410 920q0 -33 22.5 -55.5t52.5 -22.5 q33 0 55.5 22.5t22.5 55.5t-22 55q-20 20 -56 20q-33 0 -55 -22q-20 -20 -20 -53z" />
<glyph unicode="&#xc0;" horiz-adv-x="1241" d="M78 696h102v-696h84v696h811v-696h86v958q0 227 -135 361q-131 131 -358 131q-225 0 -357 -131q-133 -129 -133 -361v-190h-100v-72zM262 768v215q0 178 113 285q111 104 295 104t295 -104q111 -102 110 -285v-215h-813zM451 1792l270 -281h76l-242 281h-104z" />
<glyph unicode="&#xc1;" horiz-adv-x="1243" d="M80 696h100v-696h84v696h811v-696h86v958q0 227 -133 361q-131 131 -358 131t-359 -131q-131 -129 -131 -361v-190h-100v-72zM264 768v215q0 180 110.5 284.5t295.5 104.5q186 0 297 -104q109 -102 108 -285v-215h-811zM453 1511h73l271 281h-103z" />
<glyph unicode="&#xc2;" horiz-adv-x="1241" d="M78 696h102v-696h84v696h811v-696h86v958q0 227 -135 361q-131 131 -358 131q-225 0 -357 -131q-133 -129 -133 -361v-190h-100v-72zM262 768v215q0 178 113 285q111 104 295 104t295 -104q111 -102 110 -285v-215h-813zM350 1511h82l189 230l196 -230h82l-223 283h-109z " />
<glyph unicode="&#xc3;" horiz-adv-x="1241" d="M78 696h102v-696h84v696h811v-696h86v958q0 227 -135 361q-131 131 -358 131q-225 0 -357 -131q-133 -129 -133 -361v-190h-100v-72zM262 768v215q0 178 113 285q111 104 295 104t295 -104q111 -102 110 -285v-215h-813zM326 1544h61q6 43 31 78q25 31 65 31 q45 0 111 -41q104 -68 176 -68q63 0 100 45q36 49 54 133h-66q-6 -53 -31 -82q-23 -25 -63 -28q-41 0 -105 35q-125 72 -170 71q-72 0 -122 -69q-35 -53 -41 -105z" />
<glyph unicode="&#xc4;" horiz-adv-x="1241" d="M78 696h102v-696h84v696h811v-696h86v958q0 227 -135 361q-131 131 -358 131q-225 0 -357 -131q-133 -129 -133 -361v-190h-100v-72zM262 768v215q0 178 113 285q111 104 295 104t295 -104q111 -102 110 -285v-215h-813zM395 1628q0 -29 21 -49q18 -20 49 -20q29 0 49 20 q21 24 21 49q0 29 -21 49q-23 18 -49 19q-33 0 -51 -21q-18 -18 -19 -47zM717 1628q0 -29 20 -49q18 -20 49 -20q29 0 48 20q20 20 20 49q0 25 -20 49q-18 18 -48 19q-33 0 -51 -21q-18 -18 -18 -47z" />
<glyph unicode="&#xc5;" horiz-adv-x="1241" d="M129 0h86v983q0 180 110.5 284.5t295.5 104.5q184 0 294 -104q111 -102 111 -285v-215h-731v-72h731v-696h86v958q0 227 -135 361q-131 131 -359 131q-225 0 -356 -131q-133 -129 -133 -361v-958zM457 1659q0 -55 47 -103q43 -45 110 -45q70 0 117 54q16 23 26.5 50 t10.5 62q0 57 -45 99q-45 39 -111 39q-68 0 -110 -50q-45 -49 -45 -106zM504 1659q0 55 34.5 84t75.5 29q45 0 80 -31q31 -31 31 -70q4 -53 -31 -84q-37 -31 -82 -31q-47 0 -77 31q-31 27 -31 72z" />
<glyph unicode="&#xc6;" horiz-adv-x="1916" d="M90 0h86v958q0 180 109 299q106 117 264 117q176 0 297 -104q119 -100 119 -295v-205h-709v-72h709v-694l92 -4v358q109 -178 268 -260q187 -94 502 -94v72l-82 -8q-139 0 -281 47q-176 61 -282 188q-129 156 -129 395h774v72h-774q31 309 258 467q176 121 418 121h28h33 q16 0 37 -4v71q-55 6 -109 7q-252 0 -432 -111q-158 -96 -242 -268q-14 137 -112 247q-135 150 -391 150q-184 0 -305 -109q-145 -129 -146 -383v-958z" />
<glyph unicode="&#xc7;" horiz-adv-x="1021" d="M68 711q0 -328 219 -529q178 -162 418 -180l-101 -123l31 -20q23 10 43 16q10 2 22.5 4t22.5 4q49 0 78 -28q23 -23 22 -50q0 -43 -45 -67q-35 -18 -88 -19q-66 0 -133 33l-22 -45q16 -8 35.5 -13t39.5 -9q35 -8 84 -9q82 0 144 31q59 31 59 100q0 47 -45 84 q-45 33 -102 33q-16 -4 -27.5 -6t-15.5 -2q-4 -2 -10.5 -4t-10.5 -4l-6 2l84 90h6h182v74h-166q-252 0 -428 155q-203 178 -202 482q0 307 202 485q176 156 428 156h168v73h-184q-287 0 -485 -184q-217 -199 -217 -530z" />
<glyph unicode="&#xc8;" horiz-adv-x="1017" d="M98 711q0 -328 219 -529q201 -182 484 -182h164v74h-131q-248 0 -435 153q-215 174 -215 469h781v72h-781q0 217 176 397q184 186 445 187h160v73h-164q-285 0 -484 -184q-219 -201 -219 -530zM524 1792l273 -281h75l-243 281h-105z" />
<glyph unicode="&#xc9;" horiz-adv-x="1017" d="M98 711q0 -328 219 -529q201 -182 484 -182h164v74h-131q-248 0 -435 153q-215 174 -215 469h781v72h-781q0 217 176 397q184 186 445 187h160v73h-164q-285 0 -484 -184q-219 -201 -219 -530zM526 1511h74l270 281h-102z" />
<glyph unicode="&#xca;" horiz-adv-x="1017" d="M82 711q0 -330 221 -529q201 -182 483 -182h164v74h-133q-244 0 -434 153q-215 174 -215 469h782v72h-782q0 219 178 397q180 186 445 187h159v73h-166q-281 0 -483 -184q-219 -201 -219 -530zM410 1511h82l188 230l197 -230h81l-223 283h-108z" />
<glyph unicode="&#xcb;" horiz-adv-x="1017" d="M98 711q0 -328 219 -529q201 -182 484 -182h164v74h-131q-248 0 -435 153q-215 174 -215 469h781v72h-781q0 217 176 397q184 186 445 187h160v73h-164q-285 0 -484 -184q-219 -201 -219 -530zM469 1628q0 -29 20.5 -49t49.5 -20t49 20t20 49q0 31 -20 49q-23 18 -49 19 q-31 0 -50 -21q-20 -18 -20 -47zM791 1628q0 -29 20 -49t49 -20t49 20q19 18 19 49q0 27 -19 49q-23 18 -49 19q-31 0 -49 -21q-20 -18 -20 -47z" />
<glyph unicode="&#xcc;" horiz-adv-x="450" d="M109 1792l270 -281h76l-242 281h-104zM238 0h86v1425h-86v-1425z" />
<glyph unicode="&#xcd;" horiz-adv-x="450" d="M-4 1511h74l270 281h-102zM125 0h86v1425h-86v-1425z" />
<glyph unicode="&#xce;" horiz-adv-x="450" d="M-49 1511h82l188 230l197 -230h82l-224 283h-108zM180 0h86v1425h-86v-1425z" />
<glyph unicode="&#xcf;" horiz-adv-x="450" d="M-4 1628q0 -29 20.5 -49t49.5 -20t49 20t20 49q0 31 -20 49q-23 18 -49 19q-31 0 -50 -21q-20 -18 -20 -47zM182 0h86v1425h-86v-1425zM317 1628q0 -29 20.5 -49t49.5 -20t49 20q19 18 19 49q0 27 -19 49q-23 18 -49 19q-31 0 -49 -21q-20 -18 -21 -47z" />
<glyph unicode="&#xd0;" horiz-adv-x="1243" d="M29 711h153v-711h86v711h293v71h-295v568h195q285 0 475 -184.5t190 -450.5q0 -260 -157 -443q-166 -193 -437 -192h-192v-80h203q289 0 479 199q192 199 192 516q0 309 -223 514q-209 197 -502 196h-309v-643h-151v-71z" />
<glyph unicode="&#xd1;" horiz-adv-x="1247" d="M141 0h84v1335q0 37 25 37q20 0 57 -80l565 -1218q25 -55 62 -80q27 -18 67 -19q107 1 107 103v1372h-86v-1350q0 -39 -25 -39q-20 0 -32 29l-596 1274q-23 51 -52 70q-27 16 -71 16q-57 0 -82 -33q-23 -35 -23 -82v-1335zM352 1544h62q6 43 30 78q25 31 66 31 q45 0 111 -41q104 -68 176 -68q63 0 100 45q35 49 53 133h-65q-6 -53 -31 -82q-23 -25 -63 -28q-41 0 -105 35q-125 72 -170 71q-72 0 -123 -69q-35 -53 -41 -105z" />
<glyph unicode="&#xd2;" horiz-adv-x="1585" d="M68 711q0 -303 211 -521q209 -215 509 -215q307 0 518.5 217.5t211.5 518.5q0 305 -213 524q-209 215 -517 215q-303 0 -512 -217q-209 -215 -208 -522zM156 711q0 272 182 466.5t450 194.5q270 0 454.5 -194.5t184.5 -466.5t-186 -465q-184 -193 -453 -193 q-268 0 -450 194.5t-182 463.5zM621 1792l272 -281h76l-244 281h-104z" />
<glyph unicode="&#xd3;" horiz-adv-x="1585" d="M68 711q0 -303 211 -521q209 -215 509 -215q307 0 518.5 217.5t211.5 518.5q0 305 -213 524q-209 215 -517 215q-303 0 -512 -217q-209 -215 -208 -522zM156 711q0 272 182 466.5t450 194.5q270 0 454.5 -194.5t184.5 -466.5t-186 -465q-184 -193 -453 -193 q-268 0 -450 194.5t-182 463.5zM623 1511h73l271 281h-103z" />
<glyph unicode="&#xd4;" horiz-adv-x="1585" d="M68 711q0 -303 211 -521q209 -215 509 -215q307 0 518.5 217.5t211.5 518.5q0 305 -213 524q-209 215 -517 215q-303 0 -512 -217q-209 -215 -208 -522zM156 711q0 272 182 466.5t450 194.5q270 0 454.5 -194.5t184.5 -466.5t-186 -465q-184 -193 -453 -193 q-268 0 -450 194.5t-182 463.5zM522 1511h80l189 230l196 -230h82l-221 283h-109z" />
<glyph unicode="&#xd5;" horiz-adv-x="1585" d="M68 711q0 -303 211 -521q209 -215 509 -215q307 0 518.5 217.5t211.5 518.5q0 305 -213 524q-209 215 -517 215q-303 0 -512 -217q-209 -215 -208 -522zM156 711q0 272 182 466.5t450 194.5q270 0 454.5 -194.5t184.5 -466.5t-186 -465q-184 -193 -453 -193 q-268 0 -450 194.5t-182 463.5zM498 1544h59q8 45 33 78q20 31 63 31q45 0 111 -41q106 -68 176 -68q63 0 100 45q40 49 54 133h-64q-6 -53 -31 -82q-27 -27 -63 -28q-41 0 -105 35q-127 72 -169 71q-74 0 -123 -69q-39 -53 -41 -105z" />
<glyph unicode="&#xd6;" horiz-adv-x="1585" d="M68 711q0 -303 211 -521q209 -215 509 -215q307 0 518.5 217.5t211.5 518.5q0 305 -213 524q-209 215 -517 215q-303 0 -512 -217q-209 -215 -208 -522zM156 711q0 272 182 466.5t450 194.5q270 0 454.5 -194.5t184.5 -466.5t-186 -465q-184 -193 -453 -193 q-268 0 -450 194.5t-182 463.5zM565 1628q0 -29 20.5 -49t49.5 -20t49.5 20t20.5 49q0 31 -21 49q-23 18 -49 19q-31 0 -49 -21q-20 -18 -21 -47zM887 1628q0 -29 20.5 -49t48.5 -20q29 0 50 20q18 18 18 49q0 27 -18 49q-23 18 -50 19q-31 0 -49 -21q-20 -18 -20 -47z" />
<glyph unicode="&#xd7;" horiz-adv-x="1224" d="M244 414l59 -60l309 312l310 -312l59 60l-311 309l311 311l-57 58l-312 -312l-311 312l-57 -58l311 -311zM584 -4h82v545h-82v-545zM584 874h82v545h-82v-545z" />
<glyph unicode="&#xd8;" horiz-adv-x="1579" d="M-6 -25h108l193 199q131 -121 270 -166q98 -33 250 -33q283 0 492 226q209 223 209 510q0 121 -41 247q-47 139 -140 242l250 250h-102l-203 -197q-117 100 -227 146q-113 47 -256 47q-289 0 -508 -193q-219 -190 -219 -471q0 -174 30 -280q41 -135 144 -273zM152 707 q2 16 3 27t1 18v12q0 254 192.5 432t444.5 178q104 0 215 -41q104 -39 215 -137l-920 -905q-80 98 -117 205q-35 111 -34 211zM360 233l916 908q39 -47 67.5 -98.5t45.5 -104.5q34 -110 34 -223q0 -256 -176 -455q-184 -205 -440 -205q-119 0 -223 35q-129 45 -224 143z" />
<glyph unicode="&#xd9;" horiz-adv-x="1247" d="M135 465q0 -227 133 -361q131 -129 357 -129q229 0 360 131q131 130 131 359v960h-86v-987q0 -178 -112 -282q-113 -102 -293 -103q-186 0 -297 105q-109 102 -109 280v987h-84v-960zM453 1792l272 -281h76l-244 281h-104z" />
<glyph unicode="&#xda;" horiz-adv-x="1247" d="M135 465q0 -227 133 -361q131 -129 357 -129q229 0 360 131q131 130 131 359v960h-86v-987q0 -178 -112 -282q-113 -102 -293 -103q-186 0 -297 105q-109 102 -109 280v987h-84v-960zM455 1511h73l271 281h-103z" />
<glyph unicode="&#xdb;" horiz-adv-x="1247" d="M135 465q0 -227 133 -361q131 -129 357 -129q229 0 360 131q131 130 131 359v960h-86v-987q0 -178 -112 -282q-113 -102 -293 -103q-186 0 -297 105q-109 102 -109 280v987h-84v-960zM354 1511h80l189 230l196 -230h82l-221 283h-109z" />
<glyph unicode="&#xdc;" horiz-adv-x="1247" d="M135 465q0 -227 133 -361q131 -129 357 -129q229 0 360 131q131 130 131 359v960h-86v-987q0 -178 -112 -282q-113 -102 -293 -103q-186 0 -297 105q-109 102 -109 280v987h-84v-960zM397 1628q0 -29 20.5 -49t49.5 -20t49.5 20t20.5 49q0 31 -21 49q-23 18 -49 19 q-31 0 -49 -21q-20 -18 -21 -47zM719 1628q0 -29 20.5 -49t48.5 -20q29 0 50 20q18 18 18 49q0 27 -18 49q-23 18 -50 19q-31 0 -49 -21q-20 -18 -20 -47z" />
<glyph unicode="&#xdd;" d="M135 1036q0 -201 119 -325q111 -117 272 -117v-594h86v594q160 0 277 123q115 120 115 319v389h-84v-395q0 -164 -99 -262q-96 -96 -252 -96q-154 0 -252 98t-98 260v395h-84v-389zM397 1511h74l270 281h-102z" />
<glyph unicode="&#xde;" horiz-adv-x="1054" d="M92 0h86v786q0 141 98 238q100 96 250 96q156 0 254 -98q96 -96 97 -260q0 -172 -98.5 -266.5t-252.5 -94.5h-272v-79h272q190 0 313.5 116.5t123.5 323.5q0 203 -125 321q-123 117 -316 117q-115 0 -205 -45q-80 -39 -139 -111v381h-86v-385v-1040z" />
<glyph unicode="&#xdf;" d="M115 -203h82v1282q0 119 75 201q82 92 226 92q98 0 166 -43q76 -53 75 -151q0 -113 -149 -197q-147 -84 -148 -125q0 -55 131 -108q184 -74 238 -117q127 -102 127 -277q0 -123 -100 -200q-96 -76 -291 -76h-268v-78h262q479 0 479 379q0 184 -158 307q-139 111 -330 170 l199 123q90 84 90 215q0 115 -94 186q-90 70 -233 70q-164 0 -271 -104q-109 -102 -108 -259v-1290z" />
<glyph unicode="&#xe0;" d="M127 481q0 -215 137 -358q135 -143 332 -143q98 0 184 43q10 6 36 24.5t56.5 43t62.5 51t54 44.5v-186h76v481q0 215 -137 359q-135 143 -332 143q-201 0 -336 -143q-133 -143 -133 -359zM207 481q0 182 119 307q117 123 270 123q172 0 285 -131q109 -127 108 -299v-209 q-25 -23 -57.5 -51t-66.5 -56t-63.5 -49.5t-43.5 -29.5q-35 -16 -75 -24.5t-87 -8.5q-152 0 -270 123q-119 121 -119 305zM422 1368l272 -281h76l-244 281h-104z" />
<glyph unicode="&#xe1;" d="M127 481q0 -215 137 -358q135 -143 332 -143q98 0 184 43q10 6 36 24.5t56.5 43t62.5 51t54 44.5v-186h76v481q0 215 -137 359q-135 143 -332 143q-201 0 -336 -143q-133 -143 -133 -359zM207 481q0 182 119 307q117 123 270 123q172 0 285 -131q109 -127 108 -299v-209 q-25 -23 -57.5 -51t-66.5 -56t-63.5 -49.5t-43.5 -29.5q-35 -16 -75 -24.5t-87 -8.5q-152 0 -270 123q-119 121 -119 305zM424 1087h74l270 281h-102z" />
<glyph unicode="&#xe2;" d="M127 481q0 -215 137 -358q135 -143 332 -143q98 0 184 43q10 6 36 24.5t56.5 43t62.5 51t54 44.5v-186h76v481q0 215 -137 359q-135 143 -332 143q-201 0 -336 -143q-133 -143 -133 -359zM207 481q0 182 119 307q117 123 270 123q172 0 285 -131q109 -127 108 -299v-209 q-25 -23 -57.5 -51t-66.5 -56t-63.5 -49.5t-43.5 -29.5q-35 -16 -75 -24.5t-87 -8.5q-152 0 -270 123q-119 121 -119 305zM324 1087h79l189 230l196 -230h82l-221 283h-108z" />
<glyph unicode="&#xe3;" d="M127 481q0 -215 137 -358q135 -143 332 -143q98 0 184 43q10 6 36 24.5t56.5 43t62.5 51t54 44.5v-186h76v481q0 215 -137 359q-135 143 -332 143q-201 0 -336 -143q-133 -143 -133 -359zM207 481q0 182 119 307q117 123 270 123q172 0 285 -131q109 -127 108 -299v-209 q-25 -23 -57.5 -51t-66.5 -56t-63.5 -49.5t-43.5 -29.5q-35 -16 -75 -24.5t-87 -8.5q-152 0 -270 123q-119 121 -119 305zM299 1120h59q8 45 33 78q20 31 64 31q45 0 110 -41q106 -68 176 -68q63 0 101 45q39 49 53 133h-64q-6 -53 -30 -81q-27 -27 -64 -29q-41 0 -104 35 q-127 72 -170 71q-74 0 -123 -69q-39 -53 -41 -105z" />
<glyph unicode="&#xe4;" d="M127 481q0 -215 137 -358q135 -143 332 -143q98 0 184 43q10 6 36 24.5t56.5 43t62.5 51t54 44.5v-186h76v481q0 215 -137 359q-135 143 -332 143q-201 0 -336 -143q-133 -143 -133 -359zM207 481q0 182 119 307q117 123 270 123q172 0 285 -131q109 -127 108 -299v-209 q-25 -23 -57.5 -51t-66.5 -56t-63.5 -49.5t-43.5 -29.5q-35 -16 -75 -24.5t-87 -8.5q-152 0 -270 123q-119 121 -119 305zM367 1204q0 -29 20.5 -49t48.5 -20q29 0 49.5 20t20.5 49q0 31 -21 49q-23 18 -49 19q-31 0 -49 -21q-20 -18 -20 -47zM688 1204q0 -29 20.5 -49 t49.5 -20t49 20q18 18 18 49q0 27 -18 49q-23 18 -49 19q-31 0 -49 -21q-20 -18 -21 -47z" />
<glyph unicode="&#xe5;" d="M98 481q0 -215 138 -358q135 -143 331 -143q98 0 185 43q51 25 116 79v91q-35 -35 -69.5 -63t-69.5 -44t-75 -24.5t-87 -8.5q-152 0 -270 123q-119 121 -119 305q0 182 119 307q117 123 270 123q172 0 285 -131q109 -127 109 -299v-481h75v481q0 215 -137 359 q-135 143 -332 143q-201 0 -336 -143q-133 -143 -133 -359zM440 1223q0 -55 43 -95q45 -41 107 -41q70 0 110 48q39 45 39 106q0 49 -43 90q-41 39 -106 39q-70 0 -109 -45q-41 -47 -41 -102zM485 1223q-2 51 31 80q37 27 74 26q43 0 78 -31q30 -28 30 -67q0 -47 -32 -74 q-35 -29 -76 -29q-49 0 -76 27q-25 25 -29 68z" />
<glyph unicode="&#xe6;" horiz-adv-x="1916" d="M70 258q0 -133 125 -215q113 -72 256 -72q154 0 278 72q133 80 186 227q88 -164 185 -227q98 -63 268 -63q147 0 272 81q162 105 207 314l-78 10q-14 -63 -41.5 -116.5t-74.5 -100.5q-111 -113 -281 -113q-197 0 -309 129q-61 68 -88 156l823 379q-53 109 -166 182 q-129 82 -268 82q-188 0 -303 -94q-78 -63 -141 -193q-51 154 -181 226q-109 61 -258 61q-92 0 -194 -29q-98 -29 -154 -61l43 -64q82 39 160 62q76 18 145 18q125 0 215 -57q86 -53 115 -133q-387 -82 -575 -213q-166 -115 -166 -248zM152 258q0 139 270 262 q217 100 418 123q28 -80 28 -172q0 -182 -120.5 -303t-305.5 -121q-131 0 -227 88q-57 63 -63 123zM948 492q0 162 109 286q119 135 303 135q98 0 176 -45q80 -44 133 -118l-711 -338l-2 12z" />
<glyph unicode="&#xe7;" horiz-adv-x="790" d="M78 492q0 -215 139 -355q123 -121 301 -135l-92 -115l27 -20q25 14 41 16q10 2 20 3t21 3q43 0 69 -26q20 -20 21 -45q0 -41 -37 -62q-37 -18 -84 -18q-57 0 -121 29l-23 -41q16 -8 35 -13.5t37 -9.5q37 -6 76 -6q78 0 125 27q59 35 59 96q0 43 -41 78q-41 31 -92 30 q-33 -2 -57 -16l-8 4l77 84h142v82h-140q-188 0 -301 113q-115 115 -114 297q0 182 116 296q119 115 299 115h140v80h-144q-217 0 -354 -137q-137 -135 -137 -354z" />
<glyph unicode="&#xe8;" d="M51 479q0 -215 148 -358q143 -141 368 -141q203 0 346.5 143t143.5 338h-84q0 -170 -125 -289q-121 -119 -297 -119q-178 0 -301 125q-20 20 -39 45l768 525q-66 106 -178 172q-113 63 -250 63q-223 0 -361 -147q-139 -145 -139 -357zM131 475q0 174 121 307 q117 129 299 129q194 0 311 -147l-692 -469q-39 78 -39 180zM381 1368l270 -281h76l-242 281h-104z" />
<glyph unicode="&#xe9;" d="M51 479q0 -215 148 -358q143 -141 368 -141q203 0 346.5 143t143.5 338h-84q0 -170 -125 -289q-121 -119 -297 -119q-178 0 -301 125q-20 20 -39 45l768 525q-66 106 -178 172q-113 63 -250 63q-223 0 -361 -147q-139 -145 -139 -357zM131 475q0 174 121 307 q117 129 299 129q194 0 311 -147l-692 -469q-39 78 -39 180zM381 1087h76l270 281h-104z" />
<glyph unicode="&#xea;" d="M51 479q0 -215 148 -358q143 -141 368 -141q203 0 346.5 143t143.5 338h-84q0 -170 -125 -289q-121 -119 -297 -119q-178 0 -301 125q-20 20 -39 45l768 525q-66 106 -178 172q-113 63 -250 63q-223 0 -361 -147q-139 -145 -139 -357zM131 475q0 174 121 307 q117 129 299 129q194 0 311 -147l-692 -469q-39 78 -39 180zM281 1087h81l189 230l197 -230h81l-223 283h-108z" />
<glyph unicode="&#xeb;" d="M51 479q0 -215 148 -358q143 -141 368 -141q203 0 346.5 143t143.5 338h-84q0 -170 -125 -289q-121 -119 -297 -119q-178 0 -301 125q-20 20 -39 45l768 525q-66 106 -178 172q-113 63 -250 63q-223 0 -361 -147q-139 -145 -139 -357zM131 475q0 174 121 307 q117 129 299 129q194 0 311 -147l-692 -469q-39 78 -39 180zM326 1204q0 -29 20 -49q18 -20 49 -20q29 0 49 20q21 24 21 49q0 29 -21 49q-23 18 -49 19q-33 0 -51 -21q-18 -18 -18 -47zM647 1204q0 -29 21 -49q18 -20 49 -20q29 0 47 20q20 20 20 49q0 25 -20 49 q-18 18 -47 19q-33 0 -51 -21q-18 -18 -19 -47z" />
<glyph unicode="&#xec;" horiz-adv-x="450" d="M109 1368l270 -281h76l-242 281h-104zM242 0h77v965h-77v-965z" />
<glyph unicode="&#xed;" horiz-adv-x="450" d="M-4 1087h74l270 281h-102zM129 0h78v965h-78v-965z" />
<glyph unicode="&#xee;" horiz-adv-x="450" d="M-49 1087h82l188 230l197 -230h82l-224 283h-108zM184 0h78v965h-78v-965z" />
<glyph unicode="&#xef;" horiz-adv-x="450" d="M-4 1204q0 -29 20.5 -49t49.5 -20t49 20t20 49q0 31 -20 49q-23 18 -49 19q-31 0 -50 -21q-20 -18 -20 -47zM186 0h78v965h-78v-965zM317 1204q0 -29 20.5 -49t49.5 -20t49 20q19 18 19 49q0 27 -19 49q-23 18 -49 19q-31 0 -49 -21q-20 -18 -21 -47z" />
<glyph unicode="&#xf0;" horiz-adv-x="1095" d="M78 479q0 -211 139 -356q137 -143 344 -143q219 0 357 149q137 153 137 399q0 217 -137 416q-119 174 -320 318l182 137l-41 51l-196 -147q-141 94 -262 147l-45 -51q33 -16 63.5 -32.5t58.5 -33.5q61 -35 119 -76l-201 -149l39 -51l220 160q186 -137 296 -293 q-29 8 -60.5 18t-59 18.5t-47 13.5t-23.5 5q-10 2 -30.5 3t-49.5 1q-203 0 -344 -149q-139 -150 -139 -355zM156 475q0 176 116 309q113 129 289 129q29 0 74 -11t94 -29.5t96 -40t82 -41.5q64 -136 64 -279q0 -201 -117 -330q-115 -127 -293 -127q-174 0 -291 125 q-115 125 -114 295z" />
<glyph unicode="&#xf1;" horiz-adv-x="1015" d="M121 0h76v578q0 145 90 241q86 92 219 92t221 -94t88 -239v-578h78v588q0 176 -113 286q-113 109 -274 109q-166 0 -277 -111q-109 -109 -108 -284v-588zM211 1120h61q6 43 31 78q25 31 66 31q45 0 110 -41q104 -68 176 -68q63 0 101 45q35 49 53 133h-66q-6 -53 -30 -81 q-23 -25 -64 -29q-41 0 -104 35q-125 72 -170 71q-72 0 -123 -69q-35 -53 -41 -105z" />
<glyph unicode="&#xf2;" d="M80 481q0 -209 141 -356q139 -145 346 -145q205 0 348 149q142 147 142 352q0 207 -141.5 354.5t-348.5 147.5q-205 0 -346 -147.5t-141 -354.5zM160 481q0 176 119 303q117 127 288 127q174 0 291 -129t117 -301q0 -176 -117 -301q-117 -127 -291 -127t-291 129 q-117 125 -116 299zM395 1368l271 -281h75l-241 281h-105z" />
<glyph unicode="&#xf3;" d="M80 481q0 -209 141 -356q139 -145 346 -145q205 0 348 149q142 147 142 352q0 207 -141.5 354.5t-348.5 147.5q-205 0 -346 -147.5t-141 -354.5zM160 481q0 176 119 303q117 127 288 127q174 0 291 -129t117 -301q0 -176 -117 -301q-117 -127 -291 -127t-291 129 q-117 125 -116 299zM395 1087h76l270 281h-104z" />
<glyph unicode="&#xf4;" d="M80 481q0 -209 141 -356q139 -145 346 -145q205 0 348 149q142 147 142 352q0 207 -141.5 354.5t-348.5 147.5q-205 0 -346 -147.5t-141 -354.5zM160 481q0 176 119 303q117 127 288 127q174 0 291 -129t117 -301q0 -176 -117 -301q-117 -127 -291 -127t-291 129 q-117 125 -116 299zM295 1087h82l188 230l197 -230h82l-223 283h-109z" />
<glyph unicode="&#xf5;" d="M80 481q0 -209 141 -356q139 -145 346 -145q205 0 348 149q142 147 142 352q0 207 -141.5 354.5t-348.5 147.5q-205 0 -346 -147.5t-141 -354.5zM160 481q0 176 119 303q117 127 288 127q174 0 291 -129t117 -301q0 -176 -117 -301q-117 -127 -291 -127t-291 129 q-117 125 -116 299zM270 1120h62q6 43 30 78q25 31 66 31q45 0 111 -41q104 -68 176 -68q63 0 100 45q35 49 53 133h-65q-6 -53 -31 -81q-23 -25 -63 -29q-41 0 -105 35q-125 72 -170 71q-72 0 -123 -69q-35 -53 -41 -105z" />
<glyph unicode="&#xf6;" d="M80 481q0 -209 141 -356q139 -145 346 -145q205 0 348 149q142 147 142 352q0 207 -141.5 354.5t-348.5 147.5q-205 0 -346 -147.5t-141 -354.5zM160 481q0 176 119 303q117 127 288 127q174 0 291 -129t117 -301q0 -176 -117 -301q-117 -127 -291 -127t-291 129 q-117 125 -116 299zM340 1204q0 -29 20 -49q18 -20 50 -20q29 0 49 20q20 24 20 49q0 29 -20 49q-23 18 -49 19q-33 0 -52 -21q-18 -18 -18 -47zM662 1204q0 -29 20 -49q18 -20 49 -20q29 0 47 20q21 20 21 49q0 25 -21 49q-18 18 -47 19q-33 0 -51 -21q-18 -18 -18 -47z " />
<glyph unicode="&#xf7;" horiz-adv-x="1224" d="M131 440h963v82h-963v-82zM532 158q0 -35 25 -56q23 -23 55 -22q29 0 56 22q22 23 22 56t-24 55q-20 20 -56 20q-29 0 -55 -22q-23 -23 -23 -53zM532 803q0 -35 25 -55q23 -20 55 -21q29 0 56 23q22 22 22 53q0 33 -24 55q-23 23 -56 23q-29 0 -55 -23q-23 -23 -23 -55z " />
<glyph unicode="&#xf8;" horiz-adv-x="1132" d="M4 -41h100l142 150q66 -59 145 -93q78 -33 172 -32q207 0 348 149q137 150 138 354q0 98 -27 179q-29 80 -88 143l194 199h-100l-141 -146q-55 47 -123 78q-106 47 -213 47q-197 0 -338 -153.5t-141 -346.5q0 -88 32 -168q31 -84 95 -161zM158 475q0 170 116 303 q117 131 289 131q72 0 137 -24q63 -25 129 -80l-575 -592q-96 127 -96 262zM301 162l582 592q49 -63 69 -133q21 -64 21 -146q0 -172 -121 -299q-119 -125 -289 -125q-139 0 -262 111z" />
<glyph unicode="&#xf9;" horiz-adv-x="1017" d="M123 377q0 -176 110.5 -286.5t274.5 -110.5t276 112q111 111 111 285v588h-78v-578q0 -150 -90 -244q-86 -90 -219 -90t-221 92q-88 90 -88 242v578h-76v-588zM336 1368l272 -281h76l-244 281h-104z" />
<glyph unicode="&#xfa;" horiz-adv-x="1017" d="M123 377q0 -176 110.5 -286.5t274.5 -110.5t276 112q111 111 111 285v588h-78v-578q0 -150 -90 -244q-86 -90 -219 -90t-221 92q-88 90 -88 242v578h-76v-588zM338 1087h74l270 281h-102z" />
<glyph unicode="&#xfb;" horiz-adv-x="1017" d="M123 377q0 -176 110.5 -286.5t274.5 -110.5t276 112q111 111 111 285v588h-78v-578q0 -150 -90 -244q-86 -90 -219 -90t-221 92q-88 90 -88 242v578h-76v-588zM238 1087h79l189 230l196 -230h82l-221 283h-108z" />
<glyph unicode="&#xfc;" horiz-adv-x="1017" d="M123 377q0 -176 110.5 -286.5t274.5 -110.5t276 112q111 111 111 285v588h-78v-578q0 -150 -90 -244q-86 -90 -219 -90t-221 92q-88 90 -88 242v578h-76v-588zM281 1204q0 -29 20.5 -49t48.5 -20q29 0 49.5 20t20.5 49q0 31 -21 49q-23 18 -49 19q-31 0 -49 -21 q-20 -18 -20 -47zM602 1204q0 -29 20.5 -49t49.5 -20t49 20q18 18 18 49q0 27 -18 49q-23 18 -49 19q-31 0 -49 -21q-20 -18 -21 -47z" />
<glyph unicode="&#xfd;" horiz-adv-x="1021" d="M127 377q0 -168 98 -275q94 -106 244 -118v-422h86v422q147 12 248 120q96 109 96 273v588h-78v-578q0 -150 -88 -244q-90 -90 -221 -90q-133 0 -221 92q-88 90 -88 242v578h-76v-588zM340 1087h74l270 281h-102z" />
<glyph unicode="&#xfe;" horiz-adv-x="1132" d="M96 -461h80v944q0 174 111 303q111 127 282 127q150 0 267 -125q117 -129 116 -305q0 -184 -116 -307q-117 -121 -269 -121q-94 0 -164 35q-66 33 -137 105v-91q94 -76 158 -100q61 -25 145 -24q197 0 332 145q135 143 135 358q0 219 -135 361q-135 139 -334 139 q-127 0 -227 -57q-98 -55 -166 -160v659h-78v-850v-1036z" />
<glyph unicode="&#xff;" horiz-adv-x="1019" d="M127 377q0 -170 96 -275q98 -106 246 -118v-422h86v422q147 12 246 120q98 107 98 273v588h-78v-578q0 -150 -90 -244q-90 -90 -219 -90q-135 0 -221 92q-88 90 -88 242v578h-76v-588zM283 1204q0 -29 20 -49q18 -20 49 -20q29 0 49 20q21 24 21 49q0 29 -21 49 q-23 18 -49 19q-33 0 -51 -21q-18 -18 -18 -47zM604 1204q0 -29 21 -49q18 -20 49 -20q29 0 47 20q20 20 20 49q0 25 -20 49q-18 18 -47 19q-33 0 -51 -21q-18 -18 -19 -47z" />
<glyph unicode="&#x152;" horiz-adv-x="2033" d="M27 707q0 -319 211 -533q199 -203 462 -203q199 0 371 119q184 131 256 350q104 -248 315 -358q156 -82 365 -82v72q-281 0 -455 168q-180 174 -180 456h635v70h-635q0 190 148 367q182 213 487 213v75q-190 0 -344 -71q-236 -111 -336 -377q-78 223 -246 350 q-166 123 -385 123q-258 0 -456 -195q-213 -213 -213 -544zM111 721q0 252 165 446q174 203 429 203q246 0 415 -213q156 -194 156 -450t-150 -449q-162 -211 -426 -211q-268 0 -436 211q-154 193 -153 463z" />
<glyph unicode="&#x153;" horiz-adv-x="2033" d="M72 475q0 -223 155 -366q137 -129 324 -129q160 0 278.5 81.5t178.5 221.5q68 -150 202 -230q123 -74 275 -73q152 0 284 98q148 109 193 293l-80 14q-33 -143 -143 -238q-109 -92 -254 -92q-180 0 -307 125q-57 55 -91 123l855 365q-61 166 -226 250q-127 66 -278 65 q-141 0 -256 -76q-119 -78 -178 -219q-68 158 -211 234q-115 61 -250 61q-154 0 -283 -92q-188 -135 -188 -416zM150 479q0 172 98 295q111 139 295 139q178 0 303 -137q119 -131 119 -309q0 -158 -113 -279q-123 -133 -301 -133q-172 0 -293 140q-109 127 -108 284z M1049 479q0 176 106 295q102 115 283 139q4 0 13 1t22 1q100 0 208 -59q107 -60 148 -154l-768 -323q-12 49 -12 100z" />
<glyph unicode="&#x178;" d="M135 1036q0 -201 119 -325q111 -117 272 -117v-594h86v594q160 0 277 123q115 120 115 319v389h-84v-395q0 -164 -99 -262q-96 -96 -252 -96q-154 0 -252 98t-98 260v395h-84v-389zM340 1628q0 -29 20.5 -49t49.5 -20t49 20t20 49q0 31 -20 49q-23 18 -49 19 q-31 0 -50 -21q-20 -18 -20 -47zM662 1628q0 -29 20 -49t49 -20t49 20q19 18 19 49q0 27 -19 49q-23 18 -49 19q-31 0 -49 -21q-20 -18 -20 -47z" />
<glyph unicode="&#x2c6;" horiz-adv-x="452" d="M-47 1087h80l188 230l197 -230h82l-221 283h-109z" />
<glyph unicode="&#x2dc;" horiz-adv-x="452" d="M-72 1120h60q8 45 32 78q20 31 64 31q45 0 111 -41q106 -68 176 -68q63 0 100 45q39 49 53 133h-63q-6 -53 -31 -81q-27 -27 -63 -29q-41 0 -105 35q-127 72 -170 71q-74 0 -123 -69q-39 -53 -41 -105z" />
<glyph unicode="&#x2000;" horiz-adv-x="907" />
<glyph unicode="&#x2001;" horiz-adv-x="1815" />
<glyph unicode="&#x2002;" horiz-adv-x="907" />
<glyph unicode="&#x2003;" horiz-adv-x="1815" />
<glyph unicode="&#x2004;" horiz-adv-x="605" />
<glyph unicode="&#x2005;" horiz-adv-x="453" />
<glyph unicode="&#x2006;" horiz-adv-x="302" />
<glyph unicode="&#x2007;" horiz-adv-x="302" />
<glyph unicode="&#x2008;" horiz-adv-x="226" />
<glyph unicode="&#x2009;" horiz-adv-x="363" />
<glyph unicode="&#x200a;" horiz-adv-x="100" />
<glyph unicode="&#x2010;" horiz-adv-x="677" d="M145 442h387v78h-387v-78z" />
<glyph unicode="&#x2011;" horiz-adv-x="677" d="M145 442h387v78h-387v-78z" />
<glyph unicode="&#x2012;" horiz-adv-x="677" d="M145 442h387v78h-387v-78z" />
<glyph unicode="&#x2013;" horiz-adv-x="1097" d="M39 442h1020v78h-1020v-78z" />
<glyph unicode="&#x2014;" horiz-adv-x="2103" d="M33 442h2038v78h-2038v-78z" />
<glyph unicode="&#x2018;" horiz-adv-x="417" d="M137 1425l70 -313h74l-58 313h-86z" />
<glyph unicode="&#x2019;" horiz-adv-x="417" d="M137 1112h74l70 313h-86z" />
<glyph unicode="&#x201a;" horiz-adv-x="450" d="M154 -166h73l70 311h-86z" />
<glyph unicode="&#x201c;" horiz-adv-x="681" d="M137 1425l70 -313h72l-58 313h-84zM401 1425l70 -313h74l-60 313h-84z" />
<glyph unicode="&#x201d;" horiz-adv-x="565" d="M80 1112h72l69 313h-86zM344 1112h72l69 313h-86z" />
<glyph unicode="&#x201e;" horiz-adv-x="677" d="M135 -166h74l67 311h-86zM399 -166h74l70 311h-88z" />
<glyph unicode="&#x2022;" horiz-adv-x="700" d="M150 721q0 -86 61 -137q63 -51 149 -52q82 0 138 64q53 63 53 145t-64 138q-63 53 -147 53q-82 0 -137 -64q-53 -63 -53 -147z" />
<glyph unicode="&#x2026;" horiz-adv-x="1859" d="M174 66q0 -33 22.5 -55.5t55.5 -22.5t55.5 22.5t22.5 55.5t-23 55q-20 20 -55 20q-33 0 -55.5 -22.5t-22.5 -52.5zM852 66q0 -33 22.5 -55.5t55.5 -22.5t55.5 22.5t22.5 55.5t-23 55q-20 20 -55 20q-37 0 -56 -22q-23 -20 -22 -53zM1530 66q0 -33 22.5 -55.5t55.5 -22.5 t55.5 22.5t22.5 55.5t-23 55q-20 20 -55 20q-33 0 -55.5 -22.5t-22.5 -52.5z" />
<glyph unicode="&#x202f;" horiz-adv-x="363" />
<glyph unicode="&#x2039;" horiz-adv-x="1019" d="M340 481l246 -315h94l-246 315l246 316h-96z" />
<glyph unicode="&#x203a;" horiz-adv-x="565" d="M113 166h96l244 315l-246 316h-94l245 -316z" />
<glyph unicode="&#x205f;" horiz-adv-x="453" />
<glyph unicode="&#x2122;" horiz-adv-x="1638" d="M74 1374h243v-811h52v811h241v45h-536v-45zM618 563h50l108 785q6 37 17 36q12 0 22 -36l203 -701q18 -63 31 -78q12 -16 43 -16q33 0 49 31q10 16 22 63l205 701q8 37 23 36q12 0 18 -36l104 -785h52l-105 783q-6 47 -20 67q-12 20 -43 21q-37 0 -49.5 -16.5 t-34.5 -88.5l-205 -694q-4 -8 -8 -14q-2 -4 -4 -6.5t-4 -6.5q-6 2 -7 4q-8 12 -10 23l-205 694q-23 72 -35 88.5t-47 16.5q-41 0 -55 -39q-4 -14 -10 -49z" />
<glyph unicode="&#x25fc;" horiz-adv-x="962" d="M0 0v963h963v-963h-963z" />
</font>
</defs>
</svg>
